<?xml version="1.0" standalone="no"?>
<!DOCTYPE svg PUBLIC "-//W3C//DTD SVG 20010904//EN"
 "http://www.w3.org/TR/2001/REC-SVG-20010904/DTD/svg10.dtd">
<svg version="1.0" xmlns="http://www.w3.org/2000/svg"
 width="260.000000pt" height="260.000000pt" viewBox="0 0 260.000000 260.000000"
 preserveAspectRatio="xMidYMid meet">
<metadata>
Created by potrace 1.14, written by Peter Selinger 2001-2017
</metadata>
<g transform="translate(0.000000,260.000000) scale(0.100000,-0.100000)"
fill="#000000" stroke="none">
<path d="M0 2024 l0 -575 85 3 c77 3 85 1 90 -17 3 -11 8 -158 12 -327 l6
-308 24 0 c14 0 23 -6 23 -15 0 -38 98 -64 168 -46 65 18 70 34 80 224 5 92
12 170 15 173 15 16 42 -13 106 -113 99 -154 117 -173 170 -180 70 -10 95 11
195 163 48 73 92 134 97 134 5 0 9 -76 9 -170 0 -160 1 -170 19 -170 10 0 26
-11 35 -25 33 -50 165 -57 211 -11 24 24 27 50 40 336 9 201 35 350 61 350 8
0 13 4 9 9 -3 5 0 13 6 17 8 4 9 3 5 -4 -4 -7 -2 -12 5 -12 7 0 4 -7 -7 -16
-10 -8 -14 -13 -8 -10 9 4 11 -18 7 -83 -9 -162 23 -271 119 -399 86 -115 196
-187 335 -218 197 -44 491 24 543 126 15 28 20 70 25 205 7 191 2 213 -53 230
-17 5 -32 12 -32 15 0 3 -50 4 -111 2 l-112 -3 4 -147 4 -146 -45 -18 c-87
-33 -217 -19 -269 29 -64 60 -90 201 -53 285 45 102 99 131 255 136 73 3 107
0 107 -7 0 -6 13 -11 29 -11 16 0 31 -5 33 -10 6 -19 111 -24 149 -8 78 34 93
38 149 38 l60 0 0 575 0 575 -1300 0 -1300 0 0 -576z m2132 -255 c70 -14 185
-70 227 -110 l34 -32 -59 -53 c-33 -29 -62 -53 -66 -54 -4 0 -28 15 -52 34
-94 71 -237 83 -357 30 -107 -48 -169 -143 -177 -270 -9 -142 52 -253 172
-314 64 -32 76 -35 155 -34 60 0 101 6 136 20 l50 20 3 142 3 142 89 0 90 0 0
-190 0 -190 -52 -30 c-85 -49 -171 -71 -293 -77 -184 -8 -298 30 -411 138 -69
67 -106 129 -129 214 -17 67 -19 189 -4 254 38 168 187 312 365 355 72 17 205
20 276 5z m-1587 -299 c95 -157 178 -291 185 -298 8 -9 16 -10 23 -3 5 5 87
140 182 298 l171 288 81 3 80 3 7 -38 c6 -41 9 -897 2 -904 -2 -2 -45 -3 -95
-1 l-91 3 0 285 c0 232 -2 284 -14 284 -7 0 -76 -106 -152 -235 l-139 -235
-46 0 -46 0 -139 230 c-76 126 -145 230 -151 230 -10 0 -13 -63 -13 -279 l0
-280 -27 -3 c-16 -2 -58 -2 -95 0 l-68 4 0 462 c0 255 3 466 7 470 4 4 43 5
86 4 l80 -3 172 -285z m305 0 c0 -5 -5 -10 -11 -10 -5 0 -7 5 -4 10 3 6 8 10
11 10 2 0 4 -4 4 -10z m3 -22 l37 -3 -40 -80 c-23 -44 -49 -88 -59 -98 -17
-17 -18 -16 -35 25 -10 24 -27 60 -38 82 -16 29 -18 40 -8 46 7 4 9 13 6 19
-5 7 8 11 38 11 30 0 46 4 46 13 0 9 2 9 8 0 4 -6 24 -13 45 -15z"/>
</g>
</svg>
